<svg xmlns="http://www.w3.org/2000/svg" width="58.031" height="46.85" viewBox="0 0 58.031 46.85">
  <metadata><?xpacket begin="﻿" id="W5M0MpCehiHzreSzNTczkc9d"?>
<x:xmpmeta xmlns:x="adobe:ns:meta/" x:xmptk="Adobe XMP Core 5.6-c138 79.159824, 2016/09/14-01:09:01        ">
   <rdf:RDF xmlns:rdf="http://www.w3.org/1999/02/22-rdf-syntax-ns#">
      <rdf:Description rdf:about=""/>
   </rdf:RDF>
</x:xmpmeta>
                                                                                                    
                                                                                                    
                                                                                                    
                                                                                                    
                                                                                                    
                                                                                                    
                                                                                                    
                                                                                                    
                                                                                                    
                                                                                                    
                                                                                                    
                                                                                                    
                                                                                                    
                                                                                                    
                                                                                                    
                                                                                                    
                                                                                                    
                                                                                                    
                                                                                                    
                                                                                                    
                           
<?xpacket end="w"?></metadata>
<defs>
    <style>
      .cls-1 {
        fill: #fff;
        fill-rule: evenodd;
      }
    </style>
  </defs>
  <path id="Forma_1" data-name="Forma 1" class="cls-1" d="M406.58,3905.15H375.238a5.831,5.831,0,0,1-5.827-5.83v-1.93a11.735,11.735,0,0,1,11.162-11.74l0.706-.04,0.429,0.57a11.093,11.093,0,0,0,18.38,0l0.427-.57,0.7,0.04a11.724,11.724,0,0,1,11.185,11.74v1.93A5.827,5.827,0,0,1,406.58,3905.15Zm-26.542-16.76a9.061,9.061,0,0,0-7.937,9v1.93a3.144,3.144,0,0,0,3.139,3.14h31.34a3.144,3.144,0,0,0,3.139-3.14v-1.93a9.049,9.049,0,0,0-7.957-9A13.686,13.686,0,0,1,380.038,3888.39Zm10.86,1.62c-6.3,0-11.426-6.26-11.426-13.96s5.124-13.97,11.426-13.97,11.427,6.27,11.427,13.97S397.2,3890.01,390.9,3890.01Zm0-25.24c-4.817,0-8.737,5.06-8.737,11.28s3.92,11.27,8.737,11.27,8.737-5.06,8.737-11.27S395.715,3864.77,390.9,3864.77Zm28,27.73a1.342,1.342,0,0,1-1.344-1.34v-1.7a7.773,7.773,0,0,0-6.757-7.72,14.828,14.828,0,0,1-1.559,1.58,1.344,1.344,0,1,1-1.763-2.03,12.524,12.524,0,0,0,1.656-1.77l0.428-.56,0.7,0.03a10.458,10.458,0,0,1,9.979,10.47v1.69A1.344,1.344,0,0,1,418.9,3892.5Zm-10.99-13.21a1.35,1.35,0,0,1-1.107-2.11,11.517,11.517,0,0,0,1.9-6.46c0-5.36-3.368-9.73-7.508-9.73a1.345,1.345,0,0,1,0-2.69c5.623,0,10.2,5.57,10.2,12.42a14.2,14.2,0,0,1-2.371,7.98A1.354,1.354,0,0,1,407.911,3879.29Zm-44.359,13.21a1.342,1.342,0,0,1-1.344-1.34v-1.7a10.457,10.457,0,0,1,9.978-10.47l0.7-.03,0.428,0.56a12,12,0,0,0,1.656,1.77,1.348,1.348,0,0,1-1.763,2.04,15.125,15.125,0,0,1-1.559-1.59,7.781,7.781,0,0,0-6.756,7.72v1.7A1.342,1.342,0,0,1,363.552,3892.5Zm10.989-13.21a1.351,1.351,0,0,1-1.11-.59,14.2,14.2,0,0,1-2.37-7.98c0-6.85,4.573-12.42,10.2-12.42a1.345,1.345,0,0,1,0,2.69c-4.139,0-7.508,4.37-7.508,9.73a11.51,11.51,0,0,0,1.9,6.46A1.35,1.35,0,0,1,374.541,3879.29Z" transform="translate(-362.219 -3858.31)"/>
</svg>
